name rise30.6535peak61.5555fall82.9339.mot
datacolumns 19
datarows 17
range 19.88159300000000 19.90825800000000
endheader
time	ground_force1_vx	ground_force1_vy	ground_force1_vz	ground_force1_px	ground_force1_py	ground_force1_pz	ground_force2_vx	ground_force2_vy	ground_force2_vz	ground_force2_px	ground_force2_py	ground_force2_pz	ground_torque1_x	ground_torque1_y	ground_torque1_z	ground_torque2_x	ground_torque2_y	ground_torque2_z	
19.88159300000000	-35.89839200000000	775.10018000000002	53.08139000000000	0.16316800000000	0.00000000000000	0.11792900000000	-12.14039700000000	69.88682900000001	9.57697000000000	0.36866400000000	0.00000000000000	-0.07941200000000	0.00000000000000	25.33069000000000	0.00000000000000	0.00000000000000	5.35892700000000	0.00000000000000	
19.88325500000000	-36.19317300000000	772.57146200000000	52.78145200000000	0.16253200000000	0.00000000000000	0.11773000000000	-12.32163900000000	74.58140299999999	9.89215500000000	0.37192100000000	0.00000000000000	-0.07942800000000	0.00000000000000	25.18626900000000	0.00000000000000	0.00000000000000	5.61645600000000	0.00000000000000	
19.88491900000000	-36.50330700000000	769.96538099999998	52.46305300000000	0.16191100000000	0.00000000000000	0.11752700000000	-12.37388800000000	79.06346200000000	10.12969900000000	0.37507300000000	0.00000000000000	-0.07945100000000	0.00000000000000	25.04258900000000	0.00000000000000	0.00000000000000	5.83744800000000	0.00000000000000	
19.88659900000000	-36.82927900000000	767.28241200000002	52.12627300000000	0.16130400000000	0.00000000000000	0.11731800000000	-12.31094500000000	83.37563700000000	10.29841900000000	0.37812700000000	0.00000000000000	-0.07948300000000	0.00000000000000	24.89984100000000	0.00000000000000	0.00000000000000	6.02551000000000	0.00000000000000	
19.88825300000000	-37.17153100000000	764.52295500000002	51.77122800000000	0.16071200000000	0.00000000000000	0.11710500000000	-12.14825400000000	87.56847000000000	10.40831600000000	0.38108500000000	0.00000000000000	-0.07952200000000	0.00000000000000	24.75819700000000	0.00000000000000	0.00000000000000	6.18505300000000	0.00000000000000	
19.88992400000000	-37.53045600000000	761.68732299999999	51.39807100000000	0.16013500000000	0.00000000000000	0.11688700000000	-11.90154300000000	91.69555900000000	10.46965100000000	0.38395100000000	0.00000000000000	-0.07956900000000	0.00000000000000	24.61781800000000	0.00000000000000	0.00000000000000	6.32080800000000	0.00000000000000	
19.89159200000000	-37.90639600000000	758.77574300000003	51.00699100000000	0.15957300000000	0.00000000000000	0.11666400000000	-11.58567100000000	95.80927300000000	10.49214700000000	0.38672700000000	0.00000000000000	-0.07962300000000	0.00000000000000	24.47884600000000	0.00000000000000	0.00000000000000	6.43739200000000	0.00000000000000	
19.89325500000000	-38.29964000000000	755.78834300000005	50.59821200000000	0.15902500000000	0.00000000000000	0.11643600000000	-11.21374900000000	99.95729000000000	10.48437900000000	0.38941300000000	0.00000000000000	-0.07968400000000	0.00000000000000	24.34140900000000	0.00000000000000	0.00000000000000	6.53895400000000	0.00000000000000	
19.89492200000000	-38.71042000000000	752.72514999999999	50.17199500000000	0.15849200000000	0.00000000000000	0.11620400000000	-10.79653900000000	104.18008000000000	10.45334400000000	0.39201100000000	0.00000000000000	-0.07975200000000	0.00000000000000	24.20561800000000	0.00000000000000	0.00000000000000	6.62892200000000	0.00000000000000	
19.89659000000000	-39.13890700000000	749.58608800000002	49.72863300000000	0.15797300000000	0.00000000000000	0.11596700000000	-10.34214600000000	108.50934900000000	10.40423300000000	0.39452000000000	0.00000000000000	-0.07982800000000	0.00000000000000	24.07156600000000	0.00000000000000	0.00000000000000	6.70984000000000	0.00000000000000	
19.89825600000000	-39.58520900000000	746.37096399999996	49.26845200000000	0.15746800000000	0.00000000000000	0.11572600000000	-9.85595700000000	112.96740100000000	10.34037200000000	0.39694100000000	0.00000000000000	-0.07991100000000	0.00000000000000	23.93932800000000	0.00000000000000	0.00000000000000	6.78330500000000	0.00000000000000	
19.89991800000000	-40.04936700000000	743.07947700000000	48.79181100000000	0.15697500000000	0.00000000000000	0.11548100000000	-9.34079800000000	117.56729300000001	10.26331500000000	0.39927300000000	0.00000000000000	-0.08000000000000	0.00000000000000	23.80896400000000	0.00000000000000	0.00000000000000	6.84998100000000	0.00000000000000	
19.90160100000000	-40.53135300000000	739.71120499999995	48.29909800000000	0.15649500000000	0.00000000000000	0.11523200000000	-8.79725600000000	122.31362700000000	10.17304700000000	0.40151600000000	0.00000000000000	-0.08009700000000	0.00000000000000	23.68051300000000	0.00000000000000	0.00000000000000	6.90968900000000	0.00000000000000	
19.90325500000000	-41.03106700000000	736.26560700000005	47.79073400000000	0.15602600000000	0.00000000000000	0.11497800000000	-8.22410500000000	127.20380600000000	10.06827100000000	0.40366800000000	0.00000000000000	-0.08020100000000	0.00000000000000	23.55399800000000	0.00000000000000	0.00000000000000	6.96153800000000	0.00000000000000	
19.90492100000000	-41.54833100000000	732.74202400000001	47.26716300000000	0.15556800000000	0.00000000000000	0.11472200000000	-7.61879800000000	132.22956600000001	9.94673300000000	0.40573000000000	0.00000000000000	-0.08031200000000	0.00000000000000	23.42942200000000	0.00000000000000	0.00000000000000	7.00409000000000	0.00000000000000	
19.90658600000000	-42.08289200000000	729.13967100000002	46.72886000000000	0.15512000000000	0.00000000000000	0.11446100000000	-6.97796200000000	137.37862600000000	9.80555900000000	0.40769900000000	0.00000000000000	-0.08043000000000	0.00000000000000	23.30677200000000	0.00000000000000	0.00000000000000	7.03554100000000	0.00000000000000	
19.90825800000000	-42.63441500000000	725.45764699999995	46.17632100000000	0.15468000000000	0.00000000000000	0.11419800000000	-6.29786500000000	142.63631599999999	9.64157900000000	0.40957400000000	0.00000000000000	-0.08055400000000	0.00000000000000	23.18601700000000	0.00000000000000	0.00000000000000	7.05389500000000	0.00000000000000	
